<svg
    width={15}
    height={15}
    viewBox="0 0 124 77"
    fill="none"
    xmlns="http://www.w3.org/2000/svg"
  >
    <path
      d="M83.25 41.25c1.583 3.333 2.375 6.708 2.375 10.125 0 3.333-.833 6.667-2.5 10-1.667 3.25-4.375 6.167-8.125 8.75-3.75 2.5-8.542 3.75-14.375 3.75h-.75c-.5.083-1 .125-1.5.125H8.125c-2.25-.083-4.167-.875-5.75-2.375-1.5-1.583-2.292-3.5-2.375-5.75V8.625C.083 6.375.875 4.5 2.375 3 3.958 1.417 5.875.583 8.125.5h43c.5 0 1 .042 1.5.125h.75c5.833.167 10.625 1.5 14.375 4S74.208 10 75.875 13.25c1.667 3.167 2.5 6.375 2.5 9.625 0 3.333-.792 6.583-2.375 9.75a1.453 1.453 0 0 1-.25.375c3.417 2.417 5.917 5.167 7.5 8.25Zm-21.875 16c1.583.083 2.875-.208 3.875-.875 1.083-.667 1.875-1.417 2.375-2.25.5-.917.75-1.833.75-2.75 0-.583-.25-1.375-.75-2.375-.5-1.083-1.292-1.958-2.375-2.625-1-.667-2.292-1.042-3.875-1.125h-44.5v8.625c0 2.25 1.167 3.375 3.5 3.375h41Zm-3.25-29.875c1-.583 1.75-1.25 2.25-2 .5-.833.75-1.667.75-2.5s-.25-1.625-.75-2.375c-.5-.833-1.292-1.542-2.375-2.125-1-.667-2.292-1.042-3.875-1.125h-33.75c-2.333 0-3.5 1.125-3.5 3.375V28.5h37.25c1.583-.083 2.917-.458 4-1.125Zm53.25 48.875c-3.333 0-6.125-1.167-8.375-3.5-2.167-2.333-3.25-5.25-3.25-8.75s1.083-6.417 3.25-8.75c2.25-2.333 5.042-3.5 8.375-3.5s6.125 1.167 8.375 3.5 3.375 5.25 3.375 8.75-1.125 6.417-3.375 8.75-5.042 3.5-8.375 3.5Z"
      fill="#333"
    />
  </svg>